<?xml version="1.0" ?><svg width="32px" height="32px" viewBox="0 0 32 32" id="object" xmlns="http://www.w3.org/2000/svg"><defs><style>.cls-1{fill:#c9c1f5;}.cls-2{fill:#6d6daa;}.cls-3{fill:#eef5fd;}</style></defs><title/><rect class="cls-1" height="28" width="28" x="2" y="2"/><path class="cls-2" d="M30,31H2a1,1,0,0,1-1-1V2A1,1,0,0,1,2,1H30a1,1,0,0,1,1,1V30A1,1,0,0,1,30,31ZM3,29H29V3H3Z"/><rect class="cls-3" height="24" width="20" x="6" y="6"/><path class="cls-2" d="M26,31H6a1,1,0,0,1-1-1V6A1,1,0,0,1,6,5H26a1,1,0,0,1,1,1V30A1,1,0,0,1,26,31ZM7,29H25V7H7Z"/><path class="cls-2" d="M16,31a1,1,0,0,1-1-1V6a1,1,0,0,1,2,0V30A1,1,0,0,1,16,31Z"/></svg>