<?xml version="1.0" encoding="iso-8859-1"?>
<!-- Generator: Adobe Illustrator 19.0.0, SVG Export Plug-In . SVG Version: 6.00 Build 0)  -->
<svg version="1.1" id="Capa_1" xmlns="http://www.w3.org/2000/svg" xmlns:xlink="http://www.w3.org/1999/xlink" x="0px" y="0px"
	 viewBox="0 0 60 60" style="enable-background:new 0 0 60 60;" xml:space="preserve">
<rect style="fill:#556080;" width="60" height="60"/>
<g>
	<path style="fill:#8697CB;" d="M20,2H2v18c0,0.552,0.448,1,1,1s1-0.448,1-1V4h16c0.552,0,1-0.448,1-1S20.552,2,20,2z"/>
	<path style="fill:#8697CB;" d="M57,40c-0.552,0-1,0.448-1,1v15H41c-0.552,0-1,0.448-1,1s0.448,1,1,1h17V41
		C58,40.448,57.552,40,57,40z"/>
	<path style="fill:#8697CB;" d="M41,2c-0.552,0-1,0.448-1,1s0.448,1,1,1h15v16c0,0.552,0.448,1,1,1s1-0.448,1-1V2H41z"/>
	<path style="fill:#8697CB;" d="M20,56H4V41c0-0.552-0.448-1-1-1s-1,0.448-1,1v17h18c0.552,0,1-0.448,1-1S20.552,56,20,56z"/>
</g>
<path style="fill:#8697CB;" d="M30.556,43.996c-0.537,0-0.98-0.425-0.999-0.965c-0.019-0.552,0.413-1.015,0.965-1.034
	c0.641-0.022,1.289-0.067,1.926-0.133c0.537-0.063,1.041,0.342,1.098,0.892c0.057,0.549-0.342,1.041-0.892,1.098
	c-0.683,0.071-1.377,0.119-2.063,0.143C30.58,43.996,30.568,43.996,30.556,43.996z M26.563,43.86c-0.034,0-0.068-0.001-0.103-0.005
	c-0.681-0.07-1.37-0.164-2.048-0.281c-0.544-0.094-0.909-0.611-0.815-1.155c0.094-0.544,0.604-0.917,1.155-0.815
	c0.633,0.109,1.277,0.197,1.913,0.263c0.549,0.056,0.949,0.547,0.893,1.097C27.504,43.477,27.07,43.86,26.563,43.86z M36.488,43.175
	c-0.45,0-0.858-0.306-0.97-0.762c-0.131-0.537,0.197-1.078,0.733-1.209c0.621-0.152,1.246-0.329,1.858-0.524
	c0.525-0.167,1.088,0.123,1.257,0.648c0.168,0.526-0.122,1.089-0.648,1.257c-0.656,0.209-1.326,0.399-1.992,0.562
	C36.647,43.166,36.567,43.175,36.488,43.175z M20.699,42.641c-0.101,0-0.203-0.016-0.304-0.048
	c-0.652-0.208-1.307-0.441-1.948-0.695c-0.514-0.203-0.765-0.784-0.562-1.298c0.203-0.513,0.782-0.765,1.298-0.562
	c0.598,0.237,1.21,0.455,1.818,0.649c0.526,0.167,0.817,0.73,0.649,1.256C21.516,42.369,21.123,42.641,20.699,42.641z
	 M42.129,41.156c-0.372,0-0.73-0.209-0.902-0.567c-0.239-0.498-0.029-1.095,0.468-1.334c0.579-0.278,1.155-0.579,1.712-0.896
	c0.479-0.274,1.091-0.104,1.363,0.376s0.104,1.091-0.376,1.363c-0.597,0.339-1.214,0.662-1.833,0.959
	C42.422,41.124,42.274,41.156,42.129,41.156z M15.21,40.244c-0.167,0-0.336-0.042-0.492-0.13c-0.597-0.337-1.19-0.701-1.763-1.081
	c-0.46-0.305-0.587-0.925-0.282-1.386c0.304-0.461,0.924-0.587,1.386-0.282c0.535,0.354,1.088,0.693,1.645,1.008
	c0.48,0.272,0.649,0.882,0.377,1.363C15.898,40.061,15.559,40.244,15.21,40.244z M47.233,38.021c-0.301,0-0.598-0.135-0.795-0.392
	c-0.336-0.438-0.252-1.066,0.186-1.402c0.313-0.24,0.624-0.488,0.929-0.744c0.042-0.035,0.082-0.071,0.119-0.108l0.369-0.367
	c0.391-0.389,1.024-0.389,1.414,0.004c0.39,0.392,0.388,1.024-0.004,1.414l-0.367,0.365c-0.079,0.079-0.163,0.156-0.25,0.229
	c-0.327,0.273-0.658,0.539-0.994,0.795C47.659,37.954,47.445,38.021,47.233,38.021z M10.328,36.777
	c-0.228,0-0.456-0.077-0.644-0.235l-1.53-1.289c-0.422-0.356-0.476-0.987-0.12-1.409s0.986-0.477,1.409-0.12l1.53,1.289
	c0.422,0.356,0.476,0.987,0.12,1.409C10.896,36.656,10.613,36.777,10.328,36.777z M51.582,33.896c-0.257,0-0.514-0.098-0.709-0.295
	c-0.39-0.391-0.388-1.024,0.004-1.414l1.418-1.411c0.391-0.39,1.024-0.388,1.414,0.004c0.39,0.391,0.388,1.024-0.004,1.414
	l-1.418,1.411C52.092,33.799,51.837,33.896,51.582,33.896z"/>
<path style="fill:#8697CB;" d="M31.967,40.028c-0.49,0-0.918-0.361-0.989-0.861c-0.077-0.547,0.304-1.053,0.851-1.129
	c0.614-0.086,1.224-0.217,1.814-0.388c0.532-0.154,1.085,0.151,1.239,0.682s-0.151,1.085-0.682,1.239
	c-0.682,0.198-1.386,0.348-2.094,0.448C32.061,40.025,32.014,40.028,31.967,40.028z M27.984,40.022c-0.047,0-0.095-0.003-0.144-0.01
	c-0.705-0.101-1.408-0.253-2.092-0.454c-0.53-0.155-0.833-0.71-0.678-1.241c0.155-0.529,0.713-0.833,1.241-0.678
	c0.592,0.173,1.203,0.306,1.813,0.394c0.546,0.078,0.926,0.585,0.848,1.132C28.901,39.663,28.473,40.022,27.984,40.022z
	 M37.555,37.968c-0.331,0-0.654-0.164-0.844-0.463c-0.297-0.466-0.16-1.084,0.306-1.38c0.52-0.331,1.021-0.703,1.491-1.106
	c0.418-0.36,1.051-0.311,1.41,0.108c0.359,0.419,0.311,1.051-0.108,1.41c-0.542,0.464-1.12,0.893-1.719,1.274
	C37.925,37.918,37.739,37.968,37.555,37.968z M22.403,37.944c-0.185,0-0.372-0.051-0.539-0.158c-0.598-0.384-1.175-0.815-1.714-1.28
	c-0.418-0.361-0.464-0.992-0.104-1.41c0.361-0.418,0.991-0.464,1.41-0.104c0.468,0.404,0.968,0.777,1.487,1.11
	c0.465,0.298,0.6,0.917,0.302,1.382C23.054,37.782,22.732,37.944,22.403,37.944z M41.788,33.783c-0.188,0-0.378-0.053-0.547-0.164
	c-0.462-0.302-0.591-0.922-0.289-1.384c0.338-0.517,0.642-1.062,0.902-1.621c0.234-0.5,0.83-0.717,1.329-0.483
	c0.5,0.233,0.717,0.829,0.483,1.329c-0.301,0.645-0.651,1.274-1.042,1.871C42.434,33.624,42.114,33.783,41.788,33.783z
	 M18.182,33.745c-0.328,0-0.648-0.161-0.84-0.456c-0.389-0.6-0.737-1.23-1.035-1.873c-0.232-0.501-0.014-1.095,0.487-1.327
	c0.503-0.231,1.096-0.014,1.328,0.487c0.258,0.557,0.56,1.104,0.898,1.625c0.301,0.463,0.168,1.083-0.295,1.383
	C18.557,33.693,18.369,33.745,18.182,33.745z"/>
<g>
	<path style="fill:#FFFFFF;" d="M44.078,25.085c0,2.112-0.465,4.116-1.299,5.915H53l-4.75-4.205
		c-0.058-0.057-0.119-0.113-0.182-0.165c-1.287-1.071-2.646-2.005-4.055-2.82C44.051,24.23,44.078,24.655,44.078,25.085z"/>
	<path style="fill:#FFFFFF;" d="M17.215,30.996c-0.833-1.797-1.297-3.8-1.297-5.911c0-0.646,0.059-1.277,0.144-1.9
		c-1.862,0.966-3.653,2.121-5.317,3.517L6,31h36.346L17.215,30.996z"/>
</g>
<path style="fill:#3B97D3;" d="M42.779,31c0.834-1.798,1.299-3.802,1.299-5.915c0-0.434-0.027-0.861-0.065-1.285
	c-8.603-4.978-19.174-5.195-27.947-0.646c-0.087,0.633-0.148,1.274-0.148,1.931c0,2.111,0.465,4.114,1.297,5.911L42.779,31z"/>
<circle style="fill:#87CDF4;" cx="24.451" cy="26.365" r="3.413"/>
<rect y="30" style="fill:#FF5364;" width="60" height="2"/>
<circle style="fill:#FFFFFF;" cx="28.413" cy="26.413" r="2.413"/>
<g>
</g>
<g>
</g>
<g>
</g>
<g>
</g>
<g>
</g>
<g>
</g>
<g>
</g>
<g>
</g>
<g>
</g>
<g>
</g>
<g>
</g>
<g>
</g>
<g>
</g>
<g>
</g>
<g>
</g>
</svg>
